<svg
	xmlns="http://www.w3.org/2000/svg"
	xmlns:xlink="http://www.w3.org/1999/xlink"
	version="1.1"
	viewBox="0 0 128.6999969482422 119.69999694824219"
	enable-background="new 0 0 128.6 119.7"
	xml:space="preserve"
	width="512"
	height="512"
	class="style-removed"
	preserveAspectRatio="none"
	data-parent="shape_wCNxXoDjkj"
>
	<g>
		<g>
			<path
				fill="#F1C100"
				d="M108.1,4.4V0L20.7,27v3.6l5-1.5v10.1l-5,1.5v35.3L5.3,80.7v4.2l21.4-6.4v3.6L0,90.2v4.2l45.4-13.9V40.2    l10-3v21.3L65,36.1c0.5-1.2,1.4-2.1,2.6-2.6c0.2-0.1,0.4-0.2,0.5-0.2l40-12.3v-7.2l-4.9,1.5V5.8L108.1,4.4z M40.4,34.7l-10,3.1    V27.8l10-3V34.7z M54.9,30.2l-9.8,3v-9.9l9.8-2.9V30.2z M69.4,25.7l-9.8,3v-9.8l9.8-2.9V25.7z M83.9,21.3l-9.8,3v-9.7l9.8-2.9    V21.3z M98.5,16.7l-9.9,3.1v-9.6l9.9-3V16.7z"
			/>
			<path
				fill="#F1C100"
				d="M102,41.1l0-3.6l26.7-8.5l-0.1-4.2L73.3,42.1l-7.5,17.5l10.5,11l22.4-6.7l0.1,10.3v0.2l-22.5,6.8    c-0.5,0.1-1,0.2-1.4,0.2c-1.3,0-2.7-0.5-3.6-1.5c0,0-15.6-16.4-15.8-16.9v24.7L20.7,98.6v6.5l12-3.6v10.9l-12,3.7v3.6l87.4-26.3    V89L95,93.1V82.7l13.1-3.9V43.4l15.3-4.7l0-4.2L102,41.1z M46.9,108l-9.4,2.9v-10.8l9.4-2.8V108z M61.1,103.6l-9.4,2.9V95.8    l9.4-2.8V103.6z M75.8,99l-10,3.1V91.5l10-3V99z M90.3,94.6l-9.7,3V87.1l9.7-2.9V94.6z"
			/>
		</g>
	</g>
</svg>